<svg version="1" xmlns="http://www.w3.org/2000/svg" width="682.667" height="682.667" viewBox="0 0 512.000000 512.000000"><path d="M223.5 1.6c-59.1 8-110 33.4-151 75.5-19.2 19.7-33 38.8-44.8 62.1C8.5 176.8 0 212.9 0 256c0 43.1 8.5 79.2 27.7 116.8 11.8 23.3 25.6 42.4 44.8 62.1 41.3 42.4 92.3 67.8 151.8 75.6 15.6 2 47.8 2 63.4 0 59.5-7.8 110.5-33.2 151.8-75.6 19.2-19.7 33-38.8 44.8-62.1C503.5 335.2 512 299.1 512 256c0-43.1-8.5-79.2-27.7-116.8-11.8-23.3-25.6-42.4-44.8-62.1-41.3-42.4-92.3-67.8-151.8-75.6-14.6-1.9-50-1.9-64.2.1zm37.2 126.5c25.7 2.8 46.5 13.8 62.6 32.8l3.7 4.5V131h65v250h-64.9l-.3-69.8-.3-69.7-2.7-7.3c-3.9-10.9-8.4-17.7-17.3-26.8-6.4-6.4-9.8-8.9-17.2-12.6-12.4-6.3-21.4-8.2-35.6-7.6-8.6.4-12.9 1.1-18.5 3.1-10.7 3.7-20.7 10.1-28.7 18.2-13 13.1-18.5 25.8-19.2 44.5-.6 13.4.7 20.2 6.2 31.8 8.8 18.7 27.6 33.9 47.5 38.6 11.9 2.8 31.1 1.5 41-2.7 1.1-.5 4.4 4.5 13.5 20.9 6.6 11.8 12.1 22.1 12.3 22.9.2.7-1.6 2.7-4 4.3-27.5 18.9-70.4 21-106.6 5.4-62-26.8-93-97.3-70.6-160.5 16.5-46.3 58.8-80 107.4-85.6 10.8-1.2 15.9-1.2 26.7 0z"/></svg>